<svg width="24" height="24" viewBox="0 0 24 24" fill="none" xmlns="http://www.w3.org/2000/svg">
<path d="M11.974 15.3408C10.778 15.3408 9.68605 15.0028 8.77609 14.4829V18.8247C8.77609 20.6966 8.95808 21.4766 9.81605 21.7627V22.1266H5.08423V21.7627C5.9422 21.4766 6.12419 20.6966 6.12419 18.8247V5.82522C6.12419 4.29128 5.7342 4.03128 5.08423 3.74529V3.38131L8.5161 1.87337L8.77609 2.08136V3.7713C10.154 2.80933 11.844 1.92536 13.6379 1.92536C16.8618 1.92536 18.9157 4.62926 18.9157 8.19115C18.9157 12.1689 16.2379 15.3408 11.974 15.3408ZM8.77609 10.765C8.77609 12.559 11.09 14.8468 13.0139 14.8468C15.8218 14.8468 16.4718 12.533 16.4718 10.1671C16.4718 7.82718 15.6918 2.99132 11.818 2.99132C10.674 2.99132 9.68605 3.5113 8.77609 4.21328V10.765Z" fill="#84012A"/>
</svg>
