<svg width="157" height="24" viewBox="0 0 157 24" fill="none" xmlns="http://www.w3.org/2000/svg">
<g clip-path="url(#clip0_3219_64259)">
<path d="M6.88975 16.6657C5.69379 16.6657 4.60183 16.3277 3.69186 15.8078V20.1496C3.69186 22.0215 3.87386 22.8015 4.73182 23.0875V23.4515H0V23.0875C0.857967 22.8015 1.03996 22.0215 1.03996 20.1496V7.15009C1.03996 5.61615 0.649976 5.35616 0 5.07017V4.70619L3.43188 3.19824L3.69186 3.40623V5.09617C5.06981 4.1342 6.75975 3.25024 8.55368 3.25024C11.7775 3.25024 13.8314 5.95414 13.8314 9.51603C13.8314 13.4938 11.1536 16.6657 6.88975 16.6657ZM3.69186 12.0899C3.69186 13.8839 6.00578 16.1717 7.92971 16.1717C10.7376 16.1717 11.3876 13.8579 11.3876 11.492C11.3876 9.15205 10.6076 4.3162 6.73375 4.3162C5.58979 4.3162 4.60183 4.83618 3.69186 5.53815V12.0899Z" fill="#84022A"/>
<path d="M22.4026 16.6915C19.0228 16.6915 15.4609 14.6896 15.4609 10.2697C15.4609 6.05789 18.8408 3.25 22.4026 3.25C25.6266 3.25 29.3185 5.14793 29.3185 9.72376C29.3185 14.1696 25.4706 16.6915 22.4026 16.6915ZM18.0608 8.31984C18.0608 11.3877 19.8807 16.1195 23.3127 16.1195C25.8605 16.1195 26.6925 13.9096 26.6925 11.6997C26.6925 8.3978 24.4306 3.43199 21.0767 3.76998C18.8148 4.00397 18.0608 6.0839 18.0608 8.31984Z" fill="#84022A"/>
<path d="M31.125 16.4318V16.0678C31.983 15.7818 32.1649 15.0018 32.1649 13.1298V7.15009C32.1649 5.61615 31.7749 5.35616 31.125 5.07017V4.70619L34.5568 3.19824L34.8169 3.40623V5.59015C36.2468 4.4202 38.1187 3.25024 40.1466 3.25024C41.9665 3.25024 43.1625 3.95221 43.6565 5.61615C45.0865 4.44619 46.9844 3.25024 49.0383 3.25024C51.4302 3.25024 52.7822 4.49819 52.7822 7.54008V13.1298C52.7822 15.0018 52.9642 15.7818 53.8221 16.0678V16.4318H49.0903V16.0678C49.9483 15.7818 50.1303 15.0018 50.1303 13.1298V8.00806C50.1303 5.66815 49.3763 4.2902 47.4524 4.2902C46.2304 4.2902 45.1124 4.88817 43.7345 5.98014C43.8385 6.44812 43.8905 6.9681 43.8905 7.54008V13.1298C43.8905 15.0018 44.0725 15.7818 44.9305 16.0678V16.4318H40.1987V16.0678C41.0566 15.7818 41.2386 15.0018 41.2386 13.1298V8.00806C41.2386 5.66815 40.4846 4.2902 38.5607 4.2902C37.3388 4.2902 36.2208 4.88817 34.8169 6.03214V13.1298C34.8169 15.0018 34.9988 15.7818 35.8568 16.0678V16.4318H31.125Z" fill="#84022A"/>
<path d="M61.1774 16.6915C58.2915 16.6915 55.0156 14.6376 55.0156 10.4257C55.0156 6.0059 58.4735 3.25 61.8534 3.25C65.3633 3.25 67.2352 5.66791 67.2352 7.92983H57.3815C57.3555 8.21582 57.3296 8.47584 57.3296 8.76177C57.3296 12.1677 59.4094 14.5856 62.7114 14.5856C64.6352 14.5856 66.1172 13.7536 67.2092 12.5317L67.4432 12.7916C66.2472 14.6116 64.1933 16.6915 61.1774 16.6915ZM57.4075 7.56584H64.6093C64.2713 5.43392 62.8414 3.74398 61.0474 3.71798C58.8375 3.69198 57.7195 5.53791 57.4075 7.56584Z" fill="#84022A"/>
<path d="M71.8345 23.6327C70.2485 23.6327 67.7266 22.9308 67.7266 20.4868C67.7266 19.0829 68.8965 17.731 70.9244 16.5089C69.8325 16.197 69.1825 15.599 69.1825 14.5071C69.1825 13.5451 69.8585 12.8432 71.2624 12.0112C69.9105 11.3612 68.8446 10.1912 68.8446 8.2153C68.8446 5.48539 71.3145 3.24948 74.1484 3.24948C74.7983 3.24948 75.4483 3.32747 76.0463 3.48347C76.4103 2.93749 76.8783 2.44351 77.4242 2.07952C78.2562 1.48154 79.1401 1.14355 80.2321 1.14355C81.0381 1.14355 81.7401 1.35155 81.7401 1.84553C81.7401 2.31351 81.1941 3.43147 80.1021 3.43147C79.4781 3.43147 78.6982 3.19748 77.2162 2.7035C76.9562 2.91149 76.6963 3.22348 76.4362 3.61347C78.1002 4.15944 79.4002 5.4334 79.4002 7.66931C79.4002 10.5812 76.2802 12.6091 74.1484 12.6091C73.3424 12.6091 72.4324 12.4791 71.6264 12.1672C71.1845 12.4531 70.8725 12.7131 70.8725 13.1551C70.8725 13.6491 71.2364 14.1691 73.6283 14.299L77.1122 14.5071C79.7901 14.663 81.0901 15.157 81.0901 17.0029C81.0901 19.8368 76.6182 23.6327 71.8345 23.6327ZM69.8585 19.2129C69.8585 21.2928 71.6525 22.0728 73.6804 22.0728C77.3202 22.0728 79.8422 20.2529 79.8422 18.4329C79.8422 17.6009 79.2961 17.107 77.2422 17.0029L73.0564 16.795C72.4324 16.769 71.8604 16.691 71.3665 16.613C70.1965 17.4449 69.8585 18.3549 69.8585 19.2129ZM71.2624 6.78535C71.2624 8.91725 72.3024 12.1672 74.6943 12.1672C76.4622 12.1672 77.0083 10.6852 77.0083 9.15129C77.0083 6.83735 75.6303 3.40547 73.2903 3.63946C71.7304 3.82146 71.2624 5.22541 71.2624 6.78535Z" fill="#84022A"/>
<path d="M81.9297 16.4318V16.0678C82.7874 15.7818 82.9695 15.0018 82.9695 13.1298V7.15009C82.9695 5.61615 82.5797 5.35616 81.9297 5.07017V4.70619L85.3612 3.19824L85.6219 3.40623V6.55212C86.0117 5.64215 86.6878 4.83618 87.5195 4.2642C88.4812 3.58823 89.4693 3.25024 90.7173 3.25024C91.6012 3.25024 92.3816 3.48423 92.3816 4.03021C92.3816 4.60218 91.8097 5.72015 90.6131 5.72015C89.8856 5.72015 88.8975 5.46016 87.2332 4.94018C86.5835 5.48615 85.6997 6.65611 85.6219 7.95606V13.1298C85.6219 15.0018 85.8039 15.7818 86.6613 16.0678V16.4318H81.9297Z" fill="#84022A"/>
<path d="M101.938 16.4315C101.262 16.4315 100.898 16.0675 100.898 15.3916V11.1017C100.171 14.1176 98.2986 16.6915 95.5949 16.6915C93.6707 16.6915 92.0586 15.4695 92.0586 13.2856C92.0586 10.6077 94.7888 9.56776 98.0122 8.65783L100.898 7.82583C100.847 5.25192 99.4423 4.26396 97.5182 4.26396C96.0625 4.26396 94.6324 4.88793 93.3066 6.47388L93.0467 6.23989C94.5025 4.44595 96.5044 3.25 98.8705 3.25C102.016 3.25 103.498 4.93994 103.498 8.11182V13.1296C103.498 15.0015 103.68 15.7815 104.539 16.0675V16.4315H101.938ZM94.4768 12.3757C94.4768 14.0916 95.6983 14.7936 96.8942 14.7936C99.4423 14.7936 100.872 11.2057 100.898 8.8658V8.18981L98.1165 8.99582C96.8942 9.3338 94.4768 10.2177 94.4768 12.3757Z" fill="#84022A"/>
<path d="M105.793 16.4318V16.0678C106.651 15.7818 106.833 15.0018 106.833 13.1298V7.15009C106.833 5.61615 106.443 5.35616 105.793 5.07017V4.70619L109.225 3.19824L109.485 3.40623V5.59015C110.915 4.4202 112.787 3.25024 114.814 3.25024C117.206 3.25024 118.818 4.49819 118.818 7.54008V13.1298C118.818 15.0018 119 15.7818 119.859 16.0678V16.4318H115.126V16.0678C115.985 15.7818 116.167 15.0018 116.167 13.1298V8.00806C116.167 5.66815 115.153 4.2902 113.229 4.2902C112.006 4.2902 110.889 4.88817 109.485 6.03214V13.1298C109.485 15.0018 109.667 15.7818 110.525 16.0678V16.4318H105.793Z" fill="#84022A"/>
<path d="M131.036 16.4315C130.361 16.4315 129.997 16.0675 129.997 15.3916V11.1017C129.268 14.1176 127.396 16.6915 124.693 16.6915C122.768 16.6915 121.156 15.4695 121.156 13.2856C121.156 10.6077 123.886 9.56776 127.111 8.65783L129.997 7.82583C129.944 5.25192 128.54 4.26396 126.617 4.26396C125.16 4.26396 123.731 4.88793 122.404 6.47388L122.144 6.23989C123.601 4.44595 125.603 3.25 127.968 3.25C131.115 3.25 132.596 4.93994 132.596 8.11182V13.1296C132.596 15.0015 132.778 15.7815 133.636 16.0675V16.4315H131.036ZM123.574 12.3757C123.574 14.0916 124.797 14.7936 125.993 14.7936C128.54 14.7936 129.97 11.2057 129.997 8.8658V8.18981L127.214 8.99582C125.993 9.3338 123.574 10.2177 123.574 12.3757Z" fill="#84022A"/>
<path d="M139.052 16.6914C137.284 16.6914 136.348 15.5734 136.348 12.7655V3.84785H134.684V3.43188L138.583 0H138.999V3.43188H143.03L142.926 3.84785H138.999V12.7915C138.999 14.4035 139.598 15.1054 140.742 15.1054C141.313 15.1054 142.197 14.8715 143.055 13.8055L143.315 14.0655C141.937 15.6514 140.612 16.6914 139.052 16.6914Z" fill="#84022A"/>
<path d="M150.092 16.6915C147.206 16.6915 143.93 14.6376 143.93 10.4257C143.93 6.0059 147.388 3.25 150.768 3.25C154.278 3.25 156.15 5.66791 156.15 7.92983H146.296C146.27 8.21582 146.244 8.47584 146.244 8.76177C146.244 12.1677 148.324 14.5856 151.625 14.5856C153.55 14.5856 155.032 13.7536 156.123 12.5317L156.358 12.7916C155.162 14.6116 153.108 16.6915 150.092 16.6915ZM146.322 7.56584H153.524C153.185 5.43392 151.756 3.74398 149.962 3.71798C147.752 3.69198 146.634 5.53791 146.322 7.56584Z" fill="#84022A"/>
</g>
<defs>
<clipPath id="clip0_3219_64259">
<rect width="156.414" height="24" fill="white"/>
</clipPath>
</defs>
</svg>
