<svg width="375" height="120" viewBox="0 0 375 120" fill="none" xmlns="http://www.w3.org/2000/svg">
<path fill-rule="evenodd" clip-rule="evenodd" d="M164.471 100.956C164.446 95.2032 154.297 88.7338 149.962 85.3985C141.391 78.8017 132.476 72.7098 123.644 66.5207C114.812 60.3315 105.956 54.1592 97.5334 47.3643C92.065 42.9536 85.6395 37.9858 81.9308 31.6876C74.0302 18.2658 98.9403 20.2589 105.393 19.9653C121.808 19.2154 140.636 19.5576 156.022 12.5682C165.207 8.39569 168.87 1.39786 166.897 -8.80107C166.261 -12.1179 164.379 -15.9348 165.973 -19.1661C167.676 -22.6172 171.593 -24.6086 174.844 -25.9441C186.701 -30.8095 200.334 -31.3733 212.88 -31.984C226.408 -32.655 240.063 -32.4587 253.496 -32.5108C259.192 -32.5326 265.14 -34.6918 270.564 -36.4467C277.675 -38.7469 284.701 -41.3306 291.753 -43.8287C307.267 -49.3116 323.252 -55.0863 339.666 -56.4788C349.944 -57.3512 361.179 -56.1718 369.164 -48.5834C373.173 -44.7733 375.271 -39.1093 377.589 -34.0778C380.395 -27.9993 383.089 -21.8622 386.076 -15.8794C395.698 3.38933 409.436 22.2185 431.735 23.1648C435.108 23.3074 438.421 22.8426 441.778 22.7554C443.916 22.7017 445.819 23.247 446.614 25.6075C448.612 31.5283 442.331 40.8749 439.756 45.5725C434.117 55.8553 427.759 65.6768 421.802 75.7532C417.861 82.4172 411.04 91.5239 410.969 99.6206C410.905 106.835 419.998 112.049 424.948 115.603C429.587 118.93 437.991 123.585 438.5 130.353C438.747 133.635 436.696 136.355 434.555 138.465C430.801 142.156 426.478 144.76 423.101 148.971C417.564 155.88 412.938 165.386 413.69 174.696C414.212 181.147 417.699 185.371 422.136 189.409C424.001 191.107 425.514 192.309 425.613 195.065C425.772 199.442 424.147 204.074 422.809 208.133C418.02 222.657 411.22 236.701 403.655 249.814C399.874 256.368 395.791 262.901 390.778 268.491C387.496 272.162 383.068 276.531 378.061 276.526C372.263 276.526 366.129 274.318 360.493 272.667C349.968 269.581 339.57 266.015 329.214 262.356C305.263 253.89 281.537 244.738 258.036 234.901C241.483 227.96 224.578 221.01 209.015 211.782C205.98 209.97 203.116 207.857 200.46 205.472C197.622 202.967 194.101 201.846 190.531 201.011C168.371 195.825 144.093 199.806 121.841 202.303C116.193 202.935 110.545 203.571 104.881 204.014C100.012 204.395 94.1824 205.487 89.45 203.846C80.125 200.617 88.2768 188.713 91.7232 183.863C103.857 166.785 119.512 152.337 134.023 137.586C140.922 130.561 147.873 123.555 154.398 116.133C157.795 112.274 164.494 105.999 164.471 100.956Z" stroke="#84012A" stroke-width="0.5575"/>
<path fill-rule="evenodd" clip-rule="evenodd" d="M168.653 99.9862C164.934 93.8988 158.409 89.3994 152.992 85.165C145.197 79.0691 137.158 73.312 129.239 67.3889C121.751 61.7878 114.248 56.1229 107.314 49.7621C103.085 45.8832 97.7801 41.2446 95.7774 35.5077C91.433 23.0728 114.804 24.9594 120.574 24.6341C134.918 23.8291 151.18 23.6446 164.45 17.0977C172.737 13.0092 176.141 6.22911 174.374 -3.18384C173.763 -6.44055 172.662 -9.221 174.055 -12.4609C175.667 -16.2107 179.373 -18.5484 182.771 -20.1986C193.415 -25.3687 205.996 -26.4672 217.534 -27.3811C229.454 -28.3253 241.873 -28.991 253.409 -28.3001C258.022 -28.0251 263.332 -29.5864 267.898 -30.7837C274.922 -32.6284 281.876 -34.7565 288.865 -36.7354C303.071 -40.7602 317.645 -44.6373 332.424 -45.0784C343.093 -45.397 354.217 -43.6697 363.093 -36.9936C372.089 -30.2236 376.08 -19.729 381.069 -9.75262C389.684 7.49522 401.321 28.466 421.253 32.1101C424.276 32.6635 427.18 32.3633 430.2 32.4992C431.752 32.5679 433.519 32.7859 434.307 34.4009C436.351 38.5933 430.75 46.2589 428.865 49.4703C423.657 58.3449 417.801 66.7852 412.343 75.4888C408.008 82.3997 402.514 90.0786 400.837 98.2707C398.803 108.212 412.097 115.285 416.772 122.285C424.877 134.423 409.521 141.339 401.951 147.126C393.257 153.771 386.081 165.892 393.875 176.172C396.856 180.103 400.524 182.446 401.855 187.575C403.938 195.598 402.363 204.766 400.673 212.697C398.128 224.618 394.1 236.411 388.625 247.186C384.702 254.9 378.194 266.996 368.664 266.089C362.249 265.483 355.727 263.271 349.48 261.316C340.126 258.39 330.89 255.054 321.703 251.589C300.497 243.614 279.524 234.82 258.964 225.147C244.935 218.544 205.802 191.563 202.858 190.601C194.078 187.733 184.096 188.238 175.045 188.682C163.004 189.273 151.024 190.802 139.054 192.219C133.356 192.89 127.629 193.71 121.901 194.04C117.824 194.275 112.469 194.476 108.898 191.976C101.927 187.097 109.693 175.935 112.905 171.213C122.744 156.736 135.19 144.198 146.86 131.379C152.587 125.086 158.401 118.802 163.599 112.004C165.696 109.258 170.952 103.746 168.653 99.9862Z" stroke="#84012A" stroke-width="0.5575"/>
<path fill-rule="evenodd" clip-rule="evenodd" d="M173.798 96.864C163.641 84.6823 149.622 75.6223 137.523 65.4486C131.45 60.3407 125.339 55.0936 120.102 49.0095C117.377 45.8458 113.975 41.845 113.45 37.435C112.047 25.6374 133.112 27.2327 139.417 26.7848C151.607 25.9159 165.378 25.2566 176.437 19.2362C183.193 15.5559 186.521 9.51533 185.258 1.57592C184.698 -1.94675 183.826 -4.93933 185.258 -8.39825C186.708 -11.9025 189.73 -14.375 192.791 -16.2286C201.585 -21.5596 212.513 -23.2639 222.414 -24.5338C234.029 -26.0128 245.731 -26.5903 257.426 -26.2615C267.669 -25.978 277.863 -29.1669 287.864 -31.2688C301.113 -34.0517 314.603 -36.4823 328.16 -36.1149C338.868 -35.8231 349.659 -33.53 358.813 -27.4358C368.114 -21.2292 373.706 -11.9394 378.748 -1.91488C386.37 13.2393 395.869 33.5466 412.59 39.302C415.022 40.1407 417.288 40.233 419.797 40.3789C421.015 40.4494 422.588 40.4712 423.192 41.8115C424.646 45.0389 419.272 51.2958 417.772 53.4765C412.984 60.438 407.795 67.0858 402.888 73.955C398.307 80.3679 393.318 87.0509 390.472 94.5659C385.944 106.535 400.421 113.533 400.015 124.938C399.762 132.019 393.335 137.096 388.245 140.609C381.979 144.928 372.956 147.768 369.819 155.651C367.483 161.522 371.149 164.939 373.972 169.394C378.756 176.943 379.082 187.175 378.585 195.913C377.913 207.721 375.291 219.703 370.826 230.556C368.803 235.476 366.325 240.594 362.676 244.415C359.258 247.996 356.023 248.914 351.455 248.181C337.471 245.933 323.352 239.668 309.942 234.072C293.094 227.04 276.478 219.277 260.358 210.542C249.366 204.585 238.125 198.283 228.477 190.054C225.963 187.908 223.387 185.576 221.549 182.747C220.159 180.62 219.569 178.863 217.226 177.649C210.282 174.051 200.622 174.992 193.182 175.366C181.285 175.961 169.445 177.546 157.621 178.974C150.721 179.813 137.723 182.451 132.214 176.122C127.458 170.657 133.197 161.339 136.128 156.525C143.543 144.35 153.081 133.664 161.931 122.662C165.987 117.619 170.202 112.538 173.552 106.932C174.407 105.503 175.778 103.609 176.014 101.873C176.278 99.8835 175.045 98.3653 173.798 96.864Z" stroke="#84012A" stroke-width="0.5575"/>
<path fill-rule="evenodd" clip-rule="evenodd" d="M174.671 99.7002C165.286 88.9293 153.979 80.0806 143.903 70.0014C139.385 65.4822 134.823 60.7414 131.38 55.2283C129.529 52.2637 127.563 48.5318 128.073 44.847C129.538 34.2708 146.863 35.226 153.863 34.6066C164.263 33.6967 176.211 32.7801 185.407 27.0774C191.432 23.3422 193.691 17.8258 192.566 10.7112C191.358 3.07962 194.058 -2.46024 200.202 -6.71755C207.904 -12.0509 217.627 -14.2249 226.57 -15.7694C237.345 -17.6213 248.256 -18.4422 259.171 -18.222C269.786 -18.0072 280.071 -19.884 290.616 -21.1045C304.597 -22.7211 319.027 -23.5185 332.851 -20.2046C344.886 -17.3189 355.758 -10.9598 363.907 -1.12564C372.419 9.13824 376.633 22.0697 383.545 33.4248C387.856 40.5074 393.867 49.8765 401.923 52.6297C404.61 53.5479 409.506 52.309 407.36 56.8265C406.134 59.4101 403.838 61.6764 402.025 63.7883C399.095 67.2012 396.067 70.5201 393.088 73.886C386.738 81.061 379.937 88.3887 375.178 96.8849C369.18 107.582 378.095 115.814 377.009 126.661C376.425 132.498 372.578 137.156 368.509 140.816C365.876 143.187 362.995 145.24 360.054 147.155C356.982 149.156 353.348 150.68 350.669 153.267C346.851 156.949 348.508 161.307 349.224 166.066C350.484 174.43 350.761 182.926 350.048 191.362C349.177 201.701 347.132 212.336 342.826 221.732C341.151 225.39 339.029 229.268 335.878 231.721C332.726 234.173 329.467 234.005 325.856 233.267C315.145 231.084 304.457 226.006 294.297 221.193C281.58 215.168 269.113 208.435 257.208 200.774C248.99 195.486 240.745 189.774 233.87 182.604C231.87 180.517 229.968 178.283 228.43 175.788C227.373 174.077 226.807 171.87 225.277 170.584C220.489 166.57 210.876 167.768 205.26 168.002C194.053 168.467 183.023 170.678 171.83 171.215C165.722 171.509 156.155 172.247 151.669 166.76C147.45 161.601 151.271 153.476 153.793 148.505C158.748 138.731 165.405 130.023 171.372 120.938C173.825 117.199 176.513 113.288 178.103 109.019C179.515 105.215 177.077 102.462 174.671 99.7002Z" stroke="#84012A" stroke-width="0.5575"/>
<path fill-rule="evenodd" clip-rule="evenodd" d="M176.98 99.8763C169.509 90.3982 160.503 81.9846 152.979 72.3524C148.574 66.7115 140.989 57.2284 144.395 49.2758C148.132 40.537 161.158 40.299 168.688 39.5949C177.649 38.7567 188.173 37.6118 195.842 32.1553C198.268 30.4303 200.334 28.1471 201.21 25.1398C202.148 21.9212 201.122 19.1049 200.989 15.883C200.709 9.12397 204.534 3.69763 209.594 -0.0288877C216.747 -5.29764 225.691 -7.78869 234.139 -9.52539C243.71 -11.4842 253.44 -12.4499 263.19 -12.4087C272.508 -12.3752 281.727 -12.5931 291.054 -12.8445C303.251 -13.1798 315.621 -12.6384 327.453 -9.22029C339.109 -5.85083 349.706 0.463967 358.03 9.7526C366.15 18.8166 371.629 29.8955 376.428 41.1807C379.151 47.586 383.751 57.158 390.245 60.3933C393.133 61.8333 395.968 61.7344 392.897 65.4793C389.029 70.1949 383.818 73.9784 379.338 78.0117C372.877 83.832 366.254 89.7662 360.83 96.6862C357.367 101.105 355.824 105.393 356.062 111.114C356.246 115.473 357.082 119.786 356.66 124.161C355.669 134.431 348.003 141.473 341.226 148.031C336.866 152.249 332.884 155.466 330.64 161.465C327.985 168.556 326.871 176.271 325.097 183.633C323.149 191.718 320.898 200.128 316.644 207.25C312.858 213.589 308.254 216.433 301.362 214.724C290.612 212.062 280.016 205.504 270.473 199.438C260.76 193.265 251.213 186.325 243.164 177.841C238.819 173.26 235.853 167.881 231.993 162.959C227.139 156.78 216.157 159.12 209.631 159.643C198.797 160.511 164.707 167.009 167.853 145.964C169.166 137.18 174.337 129.073 178.118 121.322C179.685 118.105 181.953 114.244 182.308 110.558C182.694 106.543 179.226 102.729 176.98 99.8763Z" stroke="#84012A" stroke-width="0.5575"/>
<path fill-rule="evenodd" clip-rule="evenodd" d="M180.924 100.681C175.215 92.0919 168.383 83.9775 163.485 74.7008C160.307 68.693 157.186 60.6658 161.286 54.3092C165.913 47.1357 176.115 45.4635 183.611 44.5494C191.335 43.6085 200.555 42.8169 206.868 37.3776C208.876 35.6451 210.532 33.3087 210.84 30.5111C211.137 27.8275 210.298 25.144 210.576 22.4118C211.199 16.2766 214.725 11.2214 219.27 7.55501C232.717 -3.29157 252.731 -5.70342 268.955 -5.98687C277.075 -6.12775 285.433 -5.3881 293.606 -4.8581C304.212 -4.17044 314.834 -2.69449 324.948 0.862892C346.454 8.42379 360.868 25.1926 370.935 46.0589C374.104 52.6269 376.528 59.7333 381.494 65.0115C384.053 67.737 383.494 69.6943 380.877 72.1799C376.786 76.0644 371.795 79.033 367.254 82.2751C360.795 86.8858 354.198 91.5652 348.486 97.0883C344.549 100.896 341.754 104.564 340.906 110.273C340.3 114.344 340.442 118.491 340.078 122.587C339.385 130.368 337.013 138.09 332.813 144.544C329.477 149.659 325.505 154.308 321.399 158.741C316.062 164.513 311.548 170.376 307.495 177.226C302.121 186.293 294.571 203.018 281.914 198.592C267.954 193.708 254.869 181.298 245.913 169.274C242.905 165.237 240.436 160.286 236.379 157.309C230.307 152.859 224.145 153.015 216.922 153.034C206.108 153.059 182.577 155.536 182.323 138.442C182.222 131.669 185 125.266 186.33 118.751C187.83 111.455 184.823 106.534 180.924 100.681Z" stroke="#84012A" stroke-width="0.5575"/>
<path fill-rule="evenodd" clip-rule="evenodd" d="M185.176 101.447C179.529 90.2524 166.867 71.8578 176.498 59.4098C181.585 52.8313 190.583 50.3591 198.131 48.8859C204.206 47.6942 211.531 47.2467 216.121 42.1951C219.494 38.481 217.997 33.0758 219.289 28.4264C220.893 22.6625 224.575 17.9461 229.1 14.4012C241.743 4.49414 259.323 1.45378 274.532 0.80683C290.328 0.136411 307.732 3.27229 322.597 9.30438C341.13 16.8282 355.015 31.0746 364.725 49.1155C366.517 52.4458 368.145 55.8633 369.865 59.2338C371.021 61.4948 372.734 63.682 373.645 66.0603C375.162 70.0259 373.375 73.2673 370.51 75.8518C366.39 79.5726 361.328 82.2208 356.63 85.0131C350.206 88.8345 343.639 92.5871 337.663 97.0705C333.647 100.087 329.444 103.337 328.007 108.572C327.026 112.142 326.822 115.923 326.857 119.62C326.934 127.548 326.539 133.959 323.032 141.219C317.261 153.139 308.387 163.858 299.013 172.776C291.655 179.775 280.013 190.648 269.294 185.968C259.676 181.778 254.049 171.748 247.713 163.64C244.632 159.698 241.171 156.098 237.104 153.294C231.977 149.759 227.151 148.275 221.076 147.697C210.852 146.723 195.437 146.47 192.276 133.531C191.109 128.756 191.775 123.81 191.163 118.973C190.364 112.577 188.025 107.093 185.176 101.447Z" stroke="#84012A" stroke-width="0.5575"/>
<path fill-rule="evenodd" clip-rule="evenodd" d="M191.048 101.861C187.027 89.6125 181.744 74.1757 191.456 63.2894C196.161 58.0158 202.778 55.0677 209.182 52.8646C213.768 51.2857 221.051 50.8209 223.863 45.9667C225.928 42.3944 226.214 37.4664 228.083 33.6391C230.65 28.3772 234.539 24.0431 239.102 20.6504C250.989 11.8095 266.471 8.39324 280.59 7.41501C311.268 5.29246 342.484 22.1974 358.9 50.0104C363.795 58.301 370.113 67.1251 362.203 75.5952C353.567 84.8355 340.556 89.1645 330.249 95.7301C326.31 98.2369 321.292 101.25 319.094 105.789C317.773 108.517 317.682 111.94 317.622 114.944C317.463 122.593 316.861 129.473 313.945 136.611C309.443 147.641 302.263 157.818 294.128 166.154C287.032 173.422 276.914 181.965 266.609 176.725C258.709 172.698 253.698 164.15 247.559 157.85C240.727 150.833 232.279 146.104 223 143.794C213.975 141.552 204.076 140.04 199.319 130.517C197.687 127.25 195.983 123.02 195.371 119.404C194.384 113.442 192.938 107.575 191.048 101.861Z" stroke="#84012A" stroke-width="0.5575"/>
<path fill-rule="evenodd" clip-rule="evenodd" d="M197.594 101.948C195.734 89.5792 195.527 76.6821 204.17 66.9338C208.204 62.386 213.303 59.155 218.459 56.2277C222.253 54.0737 226.171 52.2569 229.004 48.7256C231.629 45.4561 233.625 41.6598 236.159 38.3047C239.502 33.8584 243.502 30.0094 248.006 26.9057C259.294 19.1403 273.027 15.5083 286.165 14.2485C292.525 13.6362 299.423 13.3175 305.74 14.9866C311.841 16.5971 317.873 19.1436 323.483 22.1129C335.408 28.4188 345.742 37.6538 353.234 49.3296C358.371 57.3382 361.149 65.1254 354.497 73.2498C346.997 82.4076 335.237 87.4604 325.545 93.404C318.897 97.4805 311.447 101.476 310.205 110.139C309.216 117.032 308.413 123.575 305.855 130.09C302.047 139.701 296.449 148.407 289.392 155.692C282.939 162.328 274.774 167.96 265.543 164.415C258.229 161.602 252.555 155.299 246.165 150.793C239.043 145.761 231.219 142.986 222.98 140.755C215.575 138.742 208.603 135.648 203.818 129.081C202.838 127.739 201.809 126.277 201.054 124.776C200.091 122.86 200.165 120.961 199.976 118.814C199.483 113.147 198.436 107.546 197.594 101.948Z" stroke="#84012A" stroke-width="0.5575"/>
<path fill-rule="evenodd" clip-rule="evenodd" d="M204.814 100.937C204.973 89.1883 207.651 78.0852 214.985 68.9295C218.121 65.0128 221.865 61.7867 225.315 58.1977C228.093 55.3043 230.719 52.6159 233.913 50.2316C241.49 44.5859 247.649 37.2802 255.701 32.2528C266.451 25.5318 278.764 21.8168 290.982 20.3314C296.948 19.6056 303.111 19.3518 309.147 20.1718C314.331 20.8758 319.295 23.3475 323.901 25.8763C332.928 30.8297 341.692 37.8699 347.553 46.777C360.475 66.4141 334.998 80.6913 321.922 89.0522C315.909 92.8983 306.72 97.3527 304.257 104.971C302.496 110.413 301.423 115.948 299.155 121.222C293.064 135.387 280.698 152.047 264.219 149.829C257.168 148.881 250.741 145.032 244.159 142.447C237.381 139.786 230.385 138.302 223.34 136.674C216.756 135.153 211.508 132.989 207.255 127.187C205.223 124.417 205.402 121.1 205.221 117.701C204.926 112.117 204.743 106.502 204.814 100.937Z" stroke="#84012A" stroke-width="0.5575"/>
<path fill-rule="evenodd" clip-rule="evenodd" d="M211.387 99.4318C214.035 81.6988 223.867 62.3393 238.324 52.0408C255.33 39.9264 273.754 29.7252 294.072 26.7926C303.493 25.4328 313.812 24.7638 322.7 29.2105C329.465 32.5924 337.323 37.6478 341.046 44.7571C350.155 62.1464 329.895 75.9895 318.352 84.0344C312.138 88.3654 304.228 92.5858 299.544 98.9104C296.826 102.577 295.439 107.428 293.245 111.456C286.596 123.661 275.652 133.505 262.019 135.265C255.715 136.078 249.366 135.072 243.11 134.273C236.706 133.454 230.223 133.01 223.859 131.868C218.779 130.956 212.792 129.412 210.921 123.676C208.562 116.447 210.307 106.674 211.387 99.4318Z" stroke="#84012A" stroke-width="0.5575"/>
<path fill-rule="evenodd" clip-rule="evenodd" d="M217.833 96.5831C221.694 79.911 229.87 63.6484 243.615 53.6955C250.904 48.4178 259.365 44.7746 267.488 41.175C276.696 37.0955 286.317 33.9289 296.143 32.3582C308.378 30.4015 328.193 28.6378 334.585 43.3465C340.929 57.9461 324.897 70.8676 315.417 78.2312C309.338 82.9484 302.833 87.2779 297.026 92.4348C293.877 95.2305 291.451 98.4609 288.786 101.74C281.421 110.825 270.921 118.018 260.218 121.857C249.846 125.579 237.014 127.227 226.065 125.997C221.34 125.469 217.964 123.685 216.535 118.613C214.555 111.564 216.237 103.47 217.833 96.5831Z" stroke="#84012A" stroke-width="0.5575"/>
<path fill-rule="evenodd" clip-rule="evenodd" d="M224.238 92.093C228.074 77.4138 236.347 64.0064 248.415 55.1962C261.942 45.3199 279.36 39.8319 295.37 37.0411C303.88 35.5588 322.321 31.5398 326.658 43.0421C330.996 54.5445 318.457 65.8797 311.24 72.1197C302.48 79.6815 293.037 86.9827 283.604 93.7674C275.409 99.6665 266.664 105.698 257.787 110.253C252.781 112.837 247.565 114.947 242.203 116.558C238.232 117.741 233.183 119.506 229.021 118.625C218.521 116.401 222.404 99.1117 224.238 92.093Z" stroke="#84012A" stroke-width="0.5575"/>
<path fill-rule="evenodd" clip-rule="evenodd" d="M232.144 87.6972C240.56 59.9372 267.224 46.2843 292.897 41.5255C298.863 40.4208 315.586 36.4381 318.921 44.9182C322.152 53.1401 311.875 62.8907 307.064 67.5104C292.155 81.8253 273.736 92.4392 256.282 102.954C250.834 106.236 241.008 113.359 234.25 110.073C226.912 106.499 230.401 93.4533 232.144 87.6972Z" stroke="#84012A" stroke-width="0.5575"/>
<path fill-rule="evenodd" clip-rule="evenodd" d="M240.765 82.354C248.084 61.9108 269.371 50.1859 288.943 46.3206C293.736 45.3748 305.911 42.4302 309.542 48.135C312.902 53.4122 304.884 61.0589 301.884 64.0975C295.205 70.8638 287.291 76.4379 279.472 81.7956C272.242 86.7525 264.934 91.8335 257.327 96.0258C253.32 98.2326 245.806 102.941 241.252 99.5339C236.35 95.8682 239.14 86.8934 240.765 82.354Z" stroke="#84012A" stroke-width="0.5575"/>
<path fill-rule="evenodd" clip-rule="evenodd" d="M250.264 76.3814C255.842 63.0312 270.782 54.362 283.961 51.4813C287.507 50.7078 295.172 48.7012 298.163 52.2665C300.917 55.5499 296.479 60.3635 294.509 62.5866C285.778 72.4403 272.993 81.242 261.278 86.6479C258.333 88.0069 253.039 90.6746 250.009 87.9314C246.901 85.1144 248.982 79.4468 250.264 76.3814Z" stroke="#84012A" stroke-width="0.5575"/>
<path fill-rule="evenodd" clip-rule="evenodd" d="M260.341 70.7734C263.484 64.1442 271.7 59.1427 278.505 57.5506C283.294 56.4311 289.051 57.3982 284.877 63.1687C280.731 68.8951 273.037 74.1253 266.516 76.444C261.541 78.2122 257.642 76.4677 260.341 70.7734Z" stroke="#84012A" stroke-width="0.5575"/>
<path fill-rule="evenodd" clip-rule="evenodd" d="M5.44274 116.688C5.24114 103.591 -1.35457 89.9797 1.9028 76.6347C4.57759 65.6745 18.0436 64.7595 26.1219 59.7939C32.5414 55.8489 36.1845 48.8605 39.6562 42.1554C42.7755 36.1357 45.5773 29.9349 48.8632 24.0141C50.9903 20.1864 54.643 12.6701 59.256 12.5344C63.6722 12.4037 67.7217 18.2608 70.2869 21.7232C73.6316 26.2363 76.5969 31.0477 79.8447 35.6329C85.3181 43.367 91.8852 49.0918 99.4048 54.5099C107.962 60.6749 116.66 66.6292 125.5 72.373C132.009 76.6146 138.561 80.8244 144.817 85.485C148.742 88.4094 157.402 93.8962 157.442 99.2874C157.461 101.86 155.152 104.709 153.594 106.765C150.959 110.246 147.956 113.428 144.943 116.542C139.331 122.342 133.482 127.879 127.696 133.484C120.186 140.757 113.012 147.911 106.41 156.168C99.5842 164.715 93.0631 173.544 86.4087 182.251C81.902 188.15 77.4001 194.775 70.8996 198.395C62.7578 202.92 56.0748 198.149 47.8409 198.093C40.7579 198.045 41.2801 180.723 40.3801 175.907C39.4768 171.031 37.4862 166.493 36.7147 161.606C35.7528 155.506 35.7401 149.265 35.5035 143.1C35.2162 135.558 35.1019 128.379 27.4649 125.503C23.1186 123.869 18.4167 123.526 13.9179 122.547C11.0034 121.912 5.50624 120.826 5.44274 116.688Z" stroke="#84012A" stroke-width="0.5575"/>
<path fill-rule="evenodd" clip-rule="evenodd" d="M8.92455 114.358C8.1821 103.38 3.7958 89.3281 7.94363 77.9955C11.4873 68.3111 22.5699 67.0556 30.0326 61.9684C36.1931 57.7724 38.9355 50.906 42.015 44.1605C44.4856 38.7493 46.8814 33.2861 49.6859 28.0478C51.7526 24.1875 54.9084 17.6703 59.2057 16.8713C63.069 16.153 67.212 21.9065 69.3805 24.8337C72.5443 29.1069 75.2501 33.7477 78.045 38.2911C82.956 46.272 87.9846 53.4488 95.1721 59.3115C102.391 65.1993 110.29 69.6018 118.272 74.1838C124.517 77.7689 130.73 81.458 136.663 85.597C141.083 88.6785 147.437 92.6228 149.46 98.1179C151.061 102.465 142.941 109.679 140.547 112.225C135.619 117.46 130.396 122.374 125.164 127.258C118.786 133.21 112.204 138.415 106.571 145.204C96.4965 157.342 88.0752 172.458 75.1118 181.479C67.2931 186.921 58.592 188.312 49.8957 187.498C46.4522 187.176 45.6255 182.045 45.1915 179.052C44.4697 174.081 44.3791 169.024 43.8242 164.032C43.3043 159.36 42.1501 154.92 41.2201 150.338C40.2789 145.696 40.015 140.939 39.3219 136.265C38.8926 133.363 38.4681 129.986 36.5905 127.653C34.6478 125.238 31.4427 124.225 28.6415 123.457C23.3808 122.027 9.44919 122.106 8.92455 114.358Z" stroke="#84012A" stroke-width="0.5575"/>
<path fill-rule="evenodd" clip-rule="evenodd" d="M13.4062 109.763C12.1576 99.6852 10.4095 87.1337 15.4963 77.8491C19.6541 70.2576 28.5218 68.6199 34.8556 63.6734C40.1237 59.56 42.1135 53.0177 44.7285 46.9381C46.8742 41.9514 49.0311 36.9428 51.6318 32.1975C53.6041 28.5987 56.1459 23.7192 60.062 22.4637C63.4102 21.3909 67.1927 26.1966 69.0489 28.5886C72.2095 32.6651 74.7863 37.2328 77.3456 41.7401C81.5321 49.1155 85.3845 56.9937 91.3429 62.9928C97.1328 68.8143 104.011 72.2506 111.017 76.1142C116.384 79.0744 121.717 82.1486 126.774 85.6787C130.656 88.3875 135.468 91.5974 137.491 96.1048C139.241 99.9919 134.749 104.593 132.505 107.335C128.799 111.861 124.685 116.013 120.629 120.182C116.252 124.679 111.404 128.828 107.168 133.436C98.2605 143.133 91.1441 153.869 80.1657 161.298C73.0557 166.11 63.4882 170.482 55.0834 169.696C49.0391 169.129 49.4367 155.012 48.8561 150.501C47.9018 143.126 46.0583 135.377 43.1299 128.583C40.6152 122.762 34.6393 120.966 29.1421 119.661C25.6985 118.841 22.0894 118.398 18.7586 117.131C14.903 115.663 13.9295 113.987 13.4062 109.763Z" stroke="#84012A" stroke-width="0.5575"/>
<path fill-rule="evenodd" clip-rule="evenodd" d="M17.5865 105.039C16.843 96.5191 17.0102 86.4441 21.8259 79.0741C26.0462 72.6186 33.5602 70.919 38.9044 65.8336C43.0754 61.8661 44.7135 55.3972 46.9566 50.1504C49.6979 43.7352 53.5393 31.8867 60.4548 29.4726C66.8879 27.2283 73.6155 41.5649 75.9446 45.84C79.6315 52.6065 82.7152 60.027 87.187 66.2757C91.0379 71.6553 96.1975 74.6292 101.674 77.825C108.656 81.9068 119.257 86.7467 122.99 94.7018C125.773 100.629 116.724 109.442 113.634 113.549C110.403 117.839 107.968 122.924 104.633 127.063C99.3702 133.595 90.8421 138.853 83.8009 142.866C76.9554 146.77 68.0659 151.09 60.3004 150.833C55.1965 150.665 54.2254 142.346 53.1365 138.283C51.5764 132.507 49.5021 127.331 45.0462 123.402C40.5107 119.403 35.1649 117.518 29.5453 115.869C26.6607 115.028 23.3701 114.373 20.7895 112.675C17.9383 110.827 17.873 108.314 17.5865 105.039Z" stroke="#84012A" stroke-width="0.5575"/>
<path fill-rule="evenodd" clip-rule="evenodd" d="M22.6803 100.128C22.7216 92.7674 24.3163 84.9183 29.045 79.2406C32.9834 74.5114 39.1481 72.9306 42.9184 68.096C45.9047 64.2685 47.4249 58.8953 49.4242 54.4505C51.8695 49.0036 55.3271 39.4884 61.4077 37.5981C67.3424 35.7579 72.5915 46.2384 74.867 50.3854C78.1992 56.4663 80.8968 62.9118 84.2592 68.9759C86.8933 73.7335 90.1145 76.7999 94.4036 79.8662C99.4385 83.4679 106.463 87.4577 109.153 93.4164C111.092 97.7307 106.398 104.625 104.694 108.425C103.552 110.978 102.506 113.571 101.931 116.338C101.484 118.493 101.439 120.487 100.143 122.337C96.879 126.991 89.7226 127.598 84.867 129.132C78.4182 131.168 71.5759 133.481 64.8273 133.923C60.6794 134.199 58.5626 130.166 56.1951 127.329C53.3976 123.975 49.4369 121.562 45.9777 119.031C41.4125 115.686 36.4442 113.605 31.3046 111.473C28.9863 110.511 26.2633 109.568 24.4671 107.656C22.5915 105.673 22.6661 102.784 22.6803 100.128Z" stroke="#84012A" stroke-width="0.5575"/>
<path fill-rule="evenodd" clip-rule="evenodd" d="M28.03 95.7586C28.8496 89.5767 31.4038 83.6682 35.7179 79.2981C39.025 75.9429 43.417 74.054 46.0712 70.0227C48.5444 66.2649 50.2678 61.9921 52.3105 57.9743C54.4724 53.7267 57.6841 46.6272 62.6702 45.4713C68.0438 44.2265 72.1832 51.3881 74.4753 55.3573C77.371 60.3733 79.5709 65.7701 82.16 70.9588C84.1106 74.8262 86.5986 78.3633 89.5414 81.4521C92.6277 84.7083 96.8132 87.8269 98.3746 92.3044C99.7549 96.2702 97.1722 101.068 96.7163 105.089C96.2287 109.386 97.0832 113.898 94.3797 117.587C88.8044 125.195 74.812 123.784 66.8128 123.947C58.9199 124.115 52.5742 119.459 46.1872 115.031C41.9683 112.107 37.5748 109.63 33.2495 106.906C28.8401 104.126 27.3088 101.199 28.03 95.7586Z" stroke="#84012A" stroke-width="0.5575"/>
<path fill-rule="evenodd" clip-rule="evenodd" d="M32.9997 92.2199C35.4235 83.2642 42.9937 78.5042 48.4055 71.7361C52.8335 66.1954 56.1537 54.7212 63.6111 53.2033C72.0777 51.4807 77.1462 66.684 80.0898 72.5505C83.3559 79.0566 89.1731 84.3488 91.5921 91.2361C92.8636 94.8509 91.7717 98.224 91.0946 101.837C90.3524 105.805 89.7945 109.861 87.2324 113.055C82.1893 119.339 72.34 119.296 65.2466 119.468C57.9036 119.648 51.4078 115.341 45.5573 111.043C39.3524 106.491 30.5171 101.404 32.9997 92.2199Z" stroke="#84012A" stroke-width="0.5575"/>
<path fill-rule="evenodd" clip-rule="evenodd" d="M37.0595 89.7917C39.7907 83.411 45.53 78.2236 50.1871 73.3267C54.0741 69.2442 58.2557 61.0259 64.1823 60.44C71.1479 59.7491 75.3696 68.5248 78.1104 73.9058C80.8079 79.1933 84.6949 84.7762 86.1886 90.5795C87.7463 96.6247 83.5983 104.766 79.6424 109.044C75.2303 113.814 68.0117 115.577 61.8178 115.386C55.3324 115.193 49.3818 111.25 44.4702 107.161C39.2192 102.79 33.8833 97.1989 37.0595 89.7917Z" stroke="#84012A" stroke-width="0.5575"/>
<path fill-rule="evenodd" clip-rule="evenodd" d="M40.8269 88.5902C43.4357 83.2832 47.9579 78.7938 52.1276 74.7892C55.3454 71.6976 60.0935 66.4407 64.7359 66.312C69.843 66.1699 74.1713 70.5824 76.2017 75.1052C78.2032 79.5662 80.312 85.1592 80.6117 90.0533C81.2623 100.711 68.0162 112.649 58.0696 111.678C48.639 110.756 35.6252 99.1642 40.8269 88.5902Z" stroke="#84012A" stroke-width="0.5575"/>
<path fill-rule="evenodd" clip-rule="evenodd" d="M44.3103 88.0051C47.9094 81.0905 56.6515 71.2327 64.7449 70.9986C74.0348 70.731 76.3669 81.7008 75.156 89.6506C73.9259 97.7643 63.2153 109.508 54.675 107.921C46.3397 106.373 40.045 96.2058 44.3103 88.0051Z" stroke="#84012A" stroke-width="0.5575"/>
<path fill-rule="evenodd" clip-rule="evenodd" d="M47.989 86.8872C51.0362 81.0976 57.5386 73.8662 64.3206 73.6473C72.4014 73.3883 72.249 82.6499 70.4165 88.4144C68.511 94.3994 60.119 104.622 53.0433 103.008C46.1629 101.432 45.0688 92.4361 47.989 86.8872Z" stroke="#84012A" stroke-width="0.5575"/>
<path fill-rule="evenodd" clip-rule="evenodd" d="M51.1921 86.2209C53.2034 82.0898 58.2374 76.8685 63.0229 76.7015C68.8723 76.5007 67.7352 83.8465 66.2239 87.3921C64.4275 91.6109 58.4062 98.9416 53.3531 97.7536C48.3781 96.5841 49.5327 89.6247 51.1921 86.2209Z" stroke="#84012A" stroke-width="0.5575"/>
</svg>
