<svg width="64" height="64" viewBox="0 0 64 64" fill="none" xmlns="http://www.w3.org/2000/svg">
<path d="M32.9294 40.9075C29.6813 40.9075 26.7156 40.0063 24.2442 38.6199V50.1963C24.2442 55.1873 24.7385 57.267 27.0687 58.0296V59H14.2174V58.0296C16.5476 57.267 17.0419 55.1873 17.0419 50.1963V15.5366C17.0419 11.4467 15.9827 10.7535 14.2174 9.991V9.02054L23.5381 5L24.2442 5.55455V10.0603C27.9866 7.49549 32.5764 5.13864 37.4486 5.13864C46.2044 5.13864 51.7826 12.3479 51.7826 21.8447C51.7826 32.4505 44.5098 40.9075 32.9294 40.9075ZM24.2442 28.7073C24.2442 33.4904 30.5286 39.5904 35.7539 39.5904C43.3799 39.5904 45.1453 33.4211 45.1453 27.1131C45.1453 20.8743 43.0268 7.98073 32.5058 7.98073C29.3989 7.98073 26.7156 9.36712 24.2442 11.2388V28.7073Z" fill="#84012A"/>
</svg>
